<svg width="165" height="43" viewBox="0 0 165 43" fill="none" xmlns="http://www.w3.org/2000/svg">
<path d="M12.4063 8.17501L3.69937 20.7292C1.65626 23.6751 2.38838 27.7193 5.3346 29.7622L17.8902 38.4681C20.8365 40.511 24.8811 39.7789 26.9242 36.8331L35.6311 24.2788C37.6742 21.3329 36.9421 17.2888 33.9959 15.2459L21.4402 6.53996C18.494 4.49709 14.4494 5.22913 12.4063 8.17501Z" fill="url(#paint0_linear_239_4611)"/>
<path d="M17.8155 22.4776V23.9922C17.8155 25.6228 18.0089 26.8364 18.3957 27.6328C18.933 28.791 19.9209 29.3701 21.3593 29.3701C22.2224 29.4075 23.0661 29.1071 23.7114 28.5328C24.0121 28.2485 24.2482 27.9027 24.4035 27.5191C24.5588 27.1355 24.6297 26.723 24.6115 26.3095C24.6063 25.6367 24.3866 24.9831 23.9843 24.4438C24.2908 24.3074 24.6166 24.2196 24.9502 24.1835C25.2591 24.1671 25.568 24.2162 25.8566 24.3275C26.1452 24.4388 26.407 24.6099 26.6249 24.8295C27.0517 25.2925 27.2773 25.9061 27.2521 26.5353C27.2521 27.89 26.5203 28.9749 25.0568 29.7902C23.8149 30.4764 22.4175 30.8317 20.9987 30.8219C18.1197 30.8219 15.8753 30.1132 14.2654 28.6959C12.5468 27.2137 11.6875 25.0552 11.6875 22.2205C11.6875 19.7704 12.4496 17.8158 13.9737 16.3566C15.4979 14.8974 17.4956 14.1783 19.9669 14.1992C21.6341 14.1778 23.2706 14.649 24.6711 15.5538C25.3779 15.9744 25.9878 16.5396 26.4607 17.2124C26.9336 17.8853 27.2589 18.6505 27.4152 19.4579C27.4999 19.8906 27.5657 20.2857 27.6096 20.6526C27.6503 21.0055 27.6712 21.3604 27.6723 21.7156V22.07C27.6728 22.1992 27.6623 22.3282 27.641 22.4557L17.8155 22.4776ZM21.8736 18.3541C21.8736 16.4434 21.2621 15.488 20.039 15.488C19.2424 15.488 18.6622 15.8956 18.2985 16.7109C18.0696 17.4549 17.9296 18.2232 17.8814 19.0001C17.8594 19.2133 17.8437 19.4328 17.8312 19.6586C17.8186 19.8843 17.8155 20.1258 17.8155 20.3829V20.6432C17.8167 20.7723 17.8272 20.9012 17.8469 21.0289H21.8736V18.3541Z" fill="white"/>
<path d="M78.9364 30.7279C77.4067 32.0458 75.4452 32.7546 73.4263 32.7191C72.3537 32.7191 70.8703 32.4504 68.9761 31.9132C67.0819 31.3759 65.5995 31.1073 64.5291 31.1073C64.1363 31.0959 63.7454 31.1655 63.3806 31.3117C63.0159 31.4579 62.6852 31.6776 62.409 31.9571C61.7599 31.8724 61.4337 31.1637 61.4337 29.8373C61.4296 29.3673 61.537 28.903 61.7473 28.4826C61.9544 28.0621 62.2336 27.6811 62.5721 27.3569C62.9111 27.0337 63.3065 26.7754 63.7388 26.5949C64.1747 26.4122 64.6428 26.3184 65.1155 26.319C66.4703 26.319 68.0802 27.082 69.9452 28.6081C71.8101 30.1341 73.2653 30.8972 74.3106 30.8972C74.9819 30.9103 75.6331 30.6683 76.1327 30.2199C76.3802 30.0046 76.5769 29.7371 76.7087 29.4367C76.8405 29.1364 76.904 28.8105 76.8948 28.4826C76.8948 26.9273 75.61 25.811 73.0405 25.1336C70.6675 24.4856 68.8904 24.0058 67.7091 23.6943C66.5236 23.3807 65.8995 23.2145 65.8462 23.1863C63.2746 21.9968 61.9888 20.061 61.9888 17.3789C61.9888 15.1776 62.9349 13.4686 64.827 12.2519C66.6056 11.1484 68.6681 10.5892 70.7606 10.6432C71.9122 10.6846 73.059 10.8125 74.1915 11.0258C75.3229 11.238 76.4688 11.3648 77.6193 11.4052C77.7886 11.4052 78.1054 11.377 78.5601 11.3206C79.0148 11.2641 79.6264 11.1794 80.3602 11.0666L80.4449 11.7439C80.4507 12.3738 80.3298 12.9984 80.0895 13.5807C79.8493 14.163 79.4945 14.6911 79.0462 15.1336C78.6325 15.6018 78.1236 15.9763 77.5536 16.2321C76.9836 16.4879 76.3655 16.619 75.7407 16.6169C74.2166 16.6169 73.2287 16.2782 72.7771 15.6009C72.8429 15.2371 72.8848 14.8695 72.9025 14.5002C72.9025 13.2271 71.9 12.5916 69.895 12.5937C69.2095 12.5726 68.5324 12.7489 67.9443 13.1017C67.6489 13.2634 67.4033 13.5029 67.2341 13.7942C67.065 14.0855 66.9787 14.4175 66.9846 14.7542C66.9846 15.7995 68.214 16.6179 70.6727 17.2095C72.4791 17.6632 73.9584 18.0593 75.1104 18.398C75.9612 18.6197 76.7848 18.9352 77.5659 19.3387C80.0247 20.6641 81.254 22.74 81.254 25.5664C81.2624 27.7091 80.4899 29.4296 78.9364 30.7279Z" fill="white"/>
<path d="M99.7663 23.5936C99.3147 24.3023 98.6791 25.1855 97.8596 26.2434C97.04 27.3012 96.0228 28.5555 94.8081 30.0063L93.9613 31.0223L93.1146 32.0383C92.5258 32.665 92.039 33.3803 91.672 34.158C91.5758 34.4619 91.5333 34.7803 91.5465 35.0988C91.6142 35.2068 91.7061 35.2977 91.815 35.3641C91.9239 35.4305 92.0467 35.4706 92.1738 35.4813C92.5156 35.4813 93.0644 35.0831 93.8265 34.2929C94.174 33.9209 94.5939 33.6238 95.0604 33.42C95.5269 33.2162 96.0302 33.1099 96.5392 33.1076C96.9965 33.1016 97.448 33.2094 97.8533 33.4211C98.246 33.6328 98.5976 33.9132 98.8913 34.249C99.1939 34.595 99.4242 34.998 99.5687 35.4343C99.7277 35.8985 99.8072 36.3861 99.804 36.8768C99.804 37.5259 99.7036 37.8488 99.506 37.8488C99.4114 37.842 99.3184 37.8208 99.2301 37.7861C99.0925 37.7389 98.9584 37.6824 98.8286 37.6168L98.446 37.4255C98.3805 37.3872 98.3097 37.3587 98.2359 37.3409C97.8094 37.216 97.366 37.1589 96.9219 37.1715C95.8462 37.1715 94.507 37.4851 92.8951 38.1123C92.4679 38.1122 92.0438 38.0401 91.6406 37.899C91.2368 37.7611 90.857 37.5611 90.5147 37.3064C90.1855 37.0625 89.9118 36.7515 89.7119 36.3938C89.5129 36.0386 89.4102 35.6376 89.414 35.2305C89.4629 34.5365 89.6506 33.8594 89.9659 33.2393C90.3611 32.3612 90.5586 31.9086 90.5586 31.8815C90.5586 31.7978 89.415 29.0018 87.1277 23.4933C85.9381 20.669 85.0192 18.474 84.3711 16.9082C83.7229 15.3424 83.3278 14.411 83.1856 14.1142C82.566 12.9863 81.7805 11.9578 80.8555 11.0631C81.4706 10.9582 82.0946 10.9152 82.7183 10.9345C84.6397 10.9345 87.4508 10.9774 91.1514 11.0631C90.7562 11.5439 90.5586 12.3352 90.5586 13.4369C90.5473 13.6634 90.561 13.8906 90.5994 14.1142C90.6276 14.1706 90.706 14.3744 90.8346 14.7413C90.9632 15.1082 91.1482 15.5943 91.4054 16.2434C91.857 17.3179 92.4079 18.6673 93.0581 20.2917C93.7084 21.916 94.4851 23.7974 95.3883 25.936C95.9256 25.6538 96.4347 24.6932 96.9156 23.0543C97.28 21.9382 97.491 20.7778 97.5428 19.6049C97.5571 18.3621 97.2515 17.1365 96.6553 16.0458C95.9758 14.7748 95.0433 14.1393 93.8579 14.1393C93.6593 14.1353 93.4609 14.15 93.2651 14.1832C93.2077 14.0179 93.1647 13.8479 93.1365 13.6752C93.1365 12.7689 93.6321 11.9944 94.6199 11.3422C95.4257 10.7723 96.3866 10.4627 97.3735 10.4547C98.0816 10.4331 98.7849 10.5792 99.4258 10.8811C100.067 11.183 100.627 11.6322 101.062 12.1919C101.967 13.3029 102.44 14.7043 102.391 16.1368C102.391 18.3506 101.516 20.8362 99.7663 23.5936Z" fill="white"/>
<path d="M114.143 31.5303C113.322 32.3247 112.172 32.7209 110.694 32.7188C109.548 32.7401 108.425 32.3903 107.495 31.7216C106.575 31.0593 105.898 30.1144 105.566 29.0311C105.428 28.5205 105.371 27.9915 105.397 27.4632L105.312 13.8634V13.44C105.174 13.4049 105.031 13.3902 104.889 13.3961C104.69 13.4007 104.493 13.4153 104.296 13.44C104.099 13.464 103.901 13.4776 103.703 13.4808L103.744 12.9728C104.026 12.747 104.308 12.5087 104.594 12.2516C104.876 11.9962 105.173 11.7565 105.481 11.5335C105.795 11.2199 106.074 10.9345 106.331 10.6649C106.567 10.4185 106.767 10.1397 106.924 9.83702C107.736 8.41903 108.687 7.08503 109.762 5.85459C110.35 5.26618 111.021 4.76653 111.754 4.37137C112.63 3.86337 113.361 3.60938 113.949 3.60938H115.05L114.965 4.2867C114.129 4.54175 113.45 5.38945 112.93 6.82981C112.551 7.92048 112.351 9.06513 112.337 10.2196V11.3641H115.388V13.5592H112.337V25.8546C112.337 25.9674 112.337 26.1493 112.296 26.4065C112.271 26.6031 112.257 26.8009 112.252 26.9991C112.252 27.9587 112.846 28.4384 114.034 28.4384C113.977 28.4384 114.457 28.2973 115.473 28.0151C115.406 29.5684 114.963 30.7401 114.143 31.5303Z" fill="white"/>
<path d="M132.223 29.5392C130.216 31.659 127.63 32.7189 124.467 32.7189C121.36 32.7189 118.818 31.6172 116.84 29.4138C114.919 27.2668 113.958 24.6401 113.958 21.5336C113.939 20.1526 114.196 18.7817 114.713 17.5009C115.23 16.2201 115.997 15.055 116.969 14.0736C117.918 13.0636 119.068 12.2629 120.344 11.7229C121.621 11.1829 122.996 10.9155 124.382 10.9378C125.79 10.9137 127.188 11.1752 128.492 11.7066C129.796 12.238 130.979 13.0283 131.969 14.0297C133.001 14.9845 133.822 16.1456 134.376 17.4378C134.931 18.73 135.208 20.1243 135.19 21.5305C135.19 24.7248 134.201 27.3944 132.223 29.5392ZM124.382 12.6782C122.35 12.6782 121.333 15.5453 121.331 21.2796V22.5339C121.303 22.8161 121.29 23.0576 121.29 23.2551V23.7631C121.29 28.5922 122.462 31.0068 124.806 31.0068C126.813 31.0068 127.817 28.818 127.817 24.4405C127.817 24.2711 127.817 24.0516 127.795 23.7851C127.773 23.5185 127.773 23.2395 127.773 22.9572C127.773 22.675 127.773 22.3583 127.751 22.0886C127.729 21.8189 127.732 21.6026 127.732 21.4332V20.458C127.755 20.2749 127.769 20.0907 127.773 19.9061V19.4577C127.773 14.938 126.643 12.6782 124.382 12.6782Z" fill="white"/>
<path d="M152.614 29.539C150.611 31.6588 148.027 32.7187 144.862 32.7187C141.755 32.7187 139.212 31.617 137.235 29.4136C135.311 27.2666 134.35 24.6399 134.353 21.5334C134.334 20.1526 134.59 18.7818 135.106 17.501C135.623 16.2203 136.389 15.0551 137.36 14.0734C138.31 13.0636 139.461 12.2631 140.738 11.7232C142.015 11.1832 143.391 10.9157 144.777 10.9376C146.184 10.9131 147.582 11.1746 148.886 11.706C150.189 12.2375 151.371 13.0279 152.36 14.0295C153.394 14.9834 154.215 16.1444 154.77 17.4368C155.325 18.7292 155.601 20.1239 155.581 21.5302C155.581 24.7246 154.592 27.3941 152.614 29.539ZM144.774 12.678C142.737 12.678 141.72 15.5451 141.722 21.2794V22.5337C141.694 22.8159 141.679 23.0574 141.679 23.2549V23.7629C141.679 28.592 142.851 31.0066 145.197 31.0066C147.202 31.0066 148.205 28.8178 148.205 24.4402C148.205 24.2709 148.205 24.0514 148.183 23.7849C148.161 23.5183 148.164 23.2392 148.164 22.957C148.164 22.6748 148.164 22.3581 148.142 22.0884C148.12 21.8187 148.12 21.6024 148.12 21.433V20.4578C148.146 20.2749 148.16 20.0906 148.164 19.9059V19.4575C148.177 14.9378 147.048 12.678 144.777 12.678H144.774Z" fill="white"/>
<path d="M155.982 32.7189C156.674 31.6923 157.043 30.4824 157.042 29.2445V8.60797C157.086 7.19439 156.653 5.80719 155.812 4.66943H163.992C163.946 4.82048 163.918 4.97615 163.907 5.13353V29.2445C164.026 29.8048 164.181 30.3569 164.371 30.897C164.531 31.5058 164.741 32.1004 164.998 32.675L155.982 32.7189Z" fill="white"/>
<path d="M48.6055 21.6527V23.6658C48.6055 25.8316 48.8627 27.4424 49.377 28.4981C50.09 30.0367 51.4019 30.8071 53.3128 30.8091C54.4638 30.8639 55.5902 30.4641 56.449 29.6959C56.8481 29.3184 57.1615 28.8596 57.3682 28.3505C57.5749 27.8415 57.6699 27.2941 57.647 26.7452C57.6331 25.8473 57.3331 24.9774 56.7908 24.2616C57.1982 24.0823 57.6309 23.9671 58.0735 23.9198C58.4839 23.8982 58.8944 23.9632 59.278 24.1107C59.6617 24.2582 60.0099 24.4848 60.3001 24.7759C60.8589 25.3952 61.1508 26.2099 61.1124 27.0431C61.1124 28.8409 60.1423 30.2813 58.2021 31.3642C56.5525 32.2762 54.6959 32.7481 52.8111 32.7345C48.9892 32.7345 46.0088 31.7938 43.87 29.9123C41.5869 27.9451 40.4453 25.079 40.4453 21.314C40.4453 18.0612 41.4583 15.4658 43.4842 13.5279C45.5102 11.59 48.1623 10.6346 51.4406 10.6618C53.6543 10.6337 55.8273 11.2587 57.6877 12.4586C59.7137 13.7401 60.941 15.4658 61.3696 17.6358C61.4825 18.2065 61.5671 18.7333 61.6236 19.2193C61.6817 19.6874 61.7111 20.1587 61.7114 20.6304V21.1008C61.7107 21.2731 61.696 21.4451 61.6675 21.6151L48.6055 21.6527ZM53.9965 16.1776C53.9965 13.6418 53.1832 12.3729 51.5566 12.3708C50.5112 12.3708 49.7418 12.9122 49.2484 13.9951C48.944 14.9826 48.7566 16.0025 48.6902 17.0337C48.662 17.319 48.64 17.6107 48.6275 17.9117C48.6149 18.2127 48.6055 18.5389 48.6055 18.8744V19.2162C48.6084 19.3874 48.6231 19.5581 48.6494 19.7273H53.9965V16.1776Z" fill="white"/>
<path fill-rule="evenodd" clip-rule="evenodd" d="M131.269 8.52685L130.917 7.93127L130.539 7.28955L129.809 8.54782L128.551 9.27761L129.809 10.0074L130.539 11.2405L131.269 9.98644L132.502 9.25664L131.269 8.52685Z" fill="url(#paint1_linear_239_4611)"/>
<path fill-rule="evenodd" clip-rule="evenodd" d="M135.506 5.3728L134.08 7.88933L132.65 5.3728L130.133 3.94676L132.65 2.51653L134.08 0L134.567 0.838845L135.51 2.51653L138.027 3.94676L135.506 5.3728Z" fill="url(#paint2_linear_239_4611)"/>
<path fill-rule="evenodd" clip-rule="evenodd" d="M140.719 8.22918L139.146 9.14772L138.215 10.7247L137.284 9.14772L135.711 8.2166L137.284 7.28548L138.215 5.71265L138.576 6.32081L139.146 7.28548L140.719 8.22918Z" fill="url(#paint3_linear_239_4611)"/>
<ellipse cx="124.817" cy="22.0762" rx="4.52844" ry="1.13211" fill="#F8FDFF"/>
<ellipse cx="144.634" cy="22.0762" rx="4.52844" ry="1.13211" fill="#F8FDFF"/>
<defs>
<linearGradient id="paint0_linear_239_4611" x1="2.54803" y1="22.5078" x2="36.782" y2="22.5078" gradientUnits="userSpaceOnUse">
<stop offset="0.05" stop-color="#00AEEF"/>
<stop offset="1" stop-color="#BD00FF"/>
</linearGradient>
<linearGradient id="paint1_linear_239_4611" x1="128.572" y1="9.25664" x2="132.502" y2="9.25664" gradientUnits="userSpaceOnUse">
<stop offset="0.31" stop-color="#00AEEF"/>
<stop offset="0.86" stop-color="#2E3192"/>
</linearGradient>
<linearGradient id="paint2_linear_239_4611" x1="130.133" y1="3.93418" x2="138.019" y2="3.93418" gradientUnits="userSpaceOnUse">
<stop offset="0.31" stop-color="#00AEEF"/>
<stop offset="0.86" stop-color="#2E3192"/>
</linearGradient>
<linearGradient id="paint3_linear_239_4611" x1="135.711" y1="8.22918" x2="140.719" y2="8.22918" gradientUnits="userSpaceOnUse">
<stop offset="0.31" stop-color="#00AEEF"/>
<stop offset="0.86" stop-color="#2E3192"/>
</linearGradient>
</defs>
</svg>
